<svg width="512" height="512" viewBox="0 0 512 512" fill="none" xmlns="http://www.w3.org/2000/svg">
  <defs>
    <linearGradient id="leafGradient" x1="0%" y1="0%" x2="100%" y2="100%">
      <stop offset="0%" style="stop-color:#1B4332;stop-opacity:1" />
      <stop offset="100%" style="stop-color:#95D5B2;stop-opacity:1" />
    </linearGradient>
  </defs>

  <!-- Background circle -->
  <circle cx="256" cy="256" r="240" fill="url(#leafGradient)" />

  <!-- Stylized avocado tree/leaf -->
  <path d="M256 120 C220 120 180 160 180 180 L180 240 C180 280 220 320 256 320 C292 320 332 280 332 240 L332 180 C332 160 292 120 256 120Z" fill="white" opacity="0.9"/>

  <!-- Leaf veins -->
  <path d="M256 140 L256 280" stroke="white" stroke-width="4" stroke-linecap="round" opacity="0.6"/>
  <path d="M256 140 L220 240" stroke="white" stroke-width="3" stroke-linecap="round" opacity="0.4"/>
  <path d="M256 140 L292 240" stroke="white" stroke-width="3" stroke-linecap="round" opacity="0.4"/>
  <path d="M256 200 L220 300" stroke="white" stroke-width="2" stroke-linecap="round" opacity="0.3"/>
  <path d="M256 200 L292 300" stroke="white" stroke-width="2" stroke-linecap="round" opacity="0.3"/>

  <!-- Small leaves decoration -->
  <circle cx="180" cy="180" r="15" fill="#95D5B2" opacity="0.8"/>
  <circle cx="332" cy="180" r="20" fill="#95D5B2" opacity="0.6"/>
  <circle cx="256" cy="340" r="18" fill="#95D5B2" opacity="0.7"/>
</svg>
